# xmcd
#
# Track frame offsets:
# 182
# 11710
# 23662
# 38245
# 47937
# 60905
# 73065
# 83292
# 97205
# 109435
# 121395
# 132677
# 144002
# 155957
# 167012
# 179575
# 190405
# 202117
# 216317
# 227007
#
# Disc length: 3179 seconds
#
#
# Revision: 2
# Processed by: cddbd v1.5.1PL2 Copyright (c) Steve Scherf et al.
# Submitted via: FreeRIP 2.944 
#
DISCID=2a0c6914
DTITLE=Cookie and His Cupcakes - Legends Of The Swamp Pop
DYEAR=1993
DGENRE=
TTITLE0=Belinda
TTITLE1=Got You On My Mind
TTITLE2=Mathilda
TTITLE3=Walking Down The Aisle
TTITLE4=Even Though
TTITLE5=I Almost Lost My Mind
TTITLE6=Just One Kiss
TTITLE7=Honey Hush
TTITLE8=Sea Of Love
TTITLE9=Betty and Dupree
TTITLE10=Shake Em Up
TTITLE11=Breaking Up Is Hard To Do
TTITLE12=I Cried
TTITLE13=Long Time Ago
TTITLE14=Trouble In My Life
TTITLE15=Feels So Good
TTITLE16=The Peanut
TTITLE17=Charged With Cheating
TTITLE18=I've Been So Lonely
TTITLE19=The Duck
EXTD=
EXTT0=
EXTT1=
EXTT2=
EXTT3=
EXTT4=
EXTT5=
EXTT6=
EXTT7=
EXTT8=
EXTT9=
EXTT10=
EXTT11=
EXTT12=
EXTT13=
EXTT14=
EXTT15=
EXTT16=
EXTT17=
EXTT18=
EXTT19=
PLAYORDER=
